# xmcd
#
# Track frame offsets:
#	150
#	19639
#	36087
#	52334
#	66267
#	84529
#	97136
#	117070
#	133353
#
# Disc length: 1994 seconds
#
# Revision: 0
# Processed by: cddbd v1.5.2PL0 Copyright (c) Steve Scherf et al.
# Submitted via: EasyCDDAExtractor 16.0.4.1
#
DISCID=8007c809
DTITLE=Verica Šerifović - Nove Pesme
DYEAR=2012
DGENRE=Nove Pesme
TTITLE0=Ako Treba, Mogu To
TTITLE1=Devet Dana Nano
TTITLE2=Nije Meni Bog
TTITLE3=Pitaš Ljude Kako Mi Je
TTITLE4=Grli Me, Ljubi Me
TTITLE5=Čudna Jada Od Mostara Grada
TTITLE6=Svaka Majka Koja Ćerku Ima
TTITLE7=Traži Je, Nađi Je
TTITLE8=Neću Da Tugujem
EXTD=
EXTT0=
EXTT1=
EXTT2=
EXTT3=
EXTT4=
EXTT5=
EXTT6=
EXTT7=
EXTT8=
PLAYORDER=
